<svg viewBox="0 0 24.313 24.2002" xmlns="http://www.w3.org/2000/svg" xmlns:xlink="http://www.w3.org/1999/xlink" width="24.312988" height="24.200195" fill="none">
	<rect id="heart 1" width="24.312885" height="24.200001" x="0.000000" y="0.000000" fill="rgb(255,255,255)" fill-opacity="0" />
	<g id="Group">
		<path id="Vector" d="M16.1609 3.90918C19.0278 3.90918 21.3511 6.25735 21.3511 9.5448C21.3511 16.1197 14.2737 19.8768 11.9146 21.2857C9.55541 19.8768 2.47803 16.1197 2.47803 9.5448C2.47803 6.25735 4.83716 3.90918 7.6681 3.90918C9.42329 3.90918 10.9709 4.84845 11.9146 5.78772C12.8581 4.84845 14.4058 3.90918 16.1609 3.90918ZM12.7959 18.5655C13.6272 18.0434 14.3775 17.5239 15.0796 16.9679C17.8926 14.7418 19.4637 12.3091 19.4637 9.5448C19.4637 7.32813 18.0134 5.78772 16.1609 5.78772C15.1455 5.78772 14.0472 6.3231 13.2488 7.11585L11.9146 8.44398L10.5802 7.11585C9.78189 6.3231 8.68348 5.78772 7.6681 5.78772C5.83742 5.78772 4.36534 7.34315 4.36534 9.5448C4.36534 12.31 5.93745 14.7418 8.74859 16.9679C9.45161 17.5239 10.2018 18.0434 11.0332 18.5646C11.3153 18.7422 11.5947 18.9121 11.9146 19.1019C12.2344 18.9121 12.5138 18.7422 12.7959 18.5655Z" fill="rgb(255,255,255)" fill-rule="nonzero" />
	</g>
</svg>
