<svg viewBox="0 0 21.5234 22" xmlns="http://www.w3.org/2000/svg" xmlns:xlink="http://www.w3.org/1999/xlink" width="21.523438" height="22.000000" fill="none">
	<rect id="profile 1" width="21.523544" height="22.000000" x="-0.000488" y="0.000000" fill="rgb(255,255,255)" fill-opacity="0" />
	<path id="Vector" d="M10.7613 10.0837C11.6481 10.0837 12.5151 9.81489 13.2525 9.31118C13.9899 8.8076 14.5647 8.09178 14.904 7.25429C15.2434 6.4168 15.3322 5.49524 15.1592 4.60616C14.9862 3.71709 14.5591 2.90041 13.932 2.25942C13.3049 1.61843 12.5059 1.18191 11.6361 1.00506C10.7662 0.828211 9.86463 0.91898 9.0453 1.26587C8.22593 1.61278 7.52561 2.20024 7.0329 2.95396C6.54018 3.70769 6.2772 4.59383 6.2772 5.50032C6.27862 6.71546 6.7515 7.88039 7.59212 8.73962C8.43274 9.59883 9.57245 10.0822 10.7613 10.0837ZM10.7613 2.75032C11.2933 2.75032 11.8136 2.91161 12.256 3.21378C12.6985 3.51596 13.0433 3.94545 13.2469 4.44794C13.4505 4.95044 13.5038 5.50338 13.4001 6.03682C13.2962 6.57027 13.04 7.06028 12.6637 7.44487C12.2875 7.82946 11.808 8.09137 11.2862 8.19748C10.7642 8.30359 10.2233 8.24913 9.73163 8.04099C9.24009 7.83285 8.81988 7.48038 8.52424 7.02814C8.22862 6.57591 8.07082 6.04423 8.07082 5.50032C8.07082 4.77098 8.35428 4.07151 8.85884 3.55578C9.3634 3.04005 10.0478 2.75032 10.7613 2.75032ZM2.68994 20.167L2.68994 16.5003C2.69137 15.2852 3.16425 14.1203 4.00487 13.261C4.84549 12.4018 5.9852 11.9185 7.17401 11.917L14.3485 11.917C15.5373 11.9185 16.677 12.4018 17.5177 13.261C18.3583 14.1203 18.8312 15.2852 18.8326 16.5003L18.8326 20.167C18.8326 20.4101 18.7381 20.6433 18.5699 20.8152C18.4018 20.987 18.1736 21.0837 17.9358 21.0837C17.6979 21.0837 17.4698 20.987 17.3016 20.8152C17.1335 20.6433 17.039 20.4101 17.039 20.167L17.039 16.5003C17.039 15.771 16.7555 15.0715 16.2509 14.5558C15.7464 14.0401 15.062 13.7503 14.3485 13.7503L7.17401 13.7503C6.46046 13.7503 5.77614 14.0401 5.27158 14.5558C4.76702 15.0715 4.48357 15.771 4.48357 16.5003L4.48357 20.167C4.48357 20.4101 4.38908 20.6433 4.2209 20.8152C4.05271 20.987 3.82461 21.0837 3.58676 21.0837C3.3489 21.0837 3.1208 20.987 2.95261 20.8152C2.78443 20.6433 2.68994 20.4101 2.68994 20.167Z" fill="rgb(255,255,255)" fill-rule="nonzero" />
</svg>
