<svg viewBox="0 0 21.3901 22" xmlns="http://www.w3.org/2000/svg" xmlns:xlink="http://www.w3.org/1999/xlink" width="21.390137" height="22.000000" fill="none">
	<rect id="shopping-cart 1" width="21.390142" height="22.000000" x="0.000000" y="0.000000" fill="rgb(255,255,255)" fill-opacity="0" />
	<g id="Group">
		<path id="Vector" d="M16.043 19.2503C16.043 18.2378 16.841 17.417 17.8255 17.417C18.81 17.417 19.608 18.2378 19.608 19.2503C19.608 20.2629 18.81 21.0837 17.8255 21.0837C16.841 21.0837 16.043 20.2629 16.043 19.2503Z" fill="rgb(255,255,255)" fill-rule="evenodd" />
		<path id="Vector" d="M6.23877 19.2503C6.23877 18.2378 7.03683 17.417 8.02128 17.417C9.00577 17.417 9.8038 18.2378 9.8038 19.2503C9.8038 20.2629 9.00577 21.0837 8.02128 21.0837C7.03683 21.0837 6.23877 20.2629 6.23877 19.2503Z" fill="rgb(255,255,255)" fill-rule="evenodd" />
		<path id="Vector" d="M1.58319e-15 0.916667C1.58319e-15 0.410405 0.399029 0 0.891256 0L4.45628 0C4.88108 0 5.24683 0.308353 5.3302 0.736764L6.07875 4.58333L20.4989 4.58333C20.7645 4.58333 21.0163 4.70519 21.1856 4.91568C21.3549 5.12616 21.4241 5.40336 21.3744 5.67172L19.9471 13.3694C19.8248 14.0024 19.49 14.5711 19.0011 14.9759C18.5148 15.3785 17.9068 15.5934 17.2827 15.5833L8.63506 15.5833C8.01095 15.5934 7.40295 15.3785 6.91657 14.9759C6.42796 14.5712 6.0932 14.0029 5.97082 13.3702L4.48194 5.71927C4.4759 5.69396 4.47088 5.66824 4.46693 5.64216L3.72573 1.83333L0.891256 1.83333C0.399029 1.83333 0 1.42292 0 0.916667L1.58319e-15 0.916667ZM6.43552 6.41667L7.71903 13.0123C7.75977 13.2233 7.87139 13.4128 8.03432 13.5477C8.19726 13.6826 8.40115 13.7543 8.61028 13.7502L8.62736 13.75L17.2904 13.75L17.3075 13.7502C17.5166 13.7543 17.7205 13.6826 17.8834 13.5477C18.0456 13.4134 18.1569 13.225 18.1981 13.0152L19.4216 6.41667L6.43552 6.41667Z" fill="rgb(255,255,255)" fill-rule="evenodd" />
	</g>
</svg>
